<svg xmlns="http://www.w3.org/2000/svg" height="192" width="192" version="1.1" viewBox="0 0 192 192">
 <g transform="translate(0 -246.2)">
  <path d="m49.61 278.2c-26.236 1.1907-41.61 23.814-41.61 64.447 0 39.888 15.798 62.512 41.61 63.553v-7.5907c-17.067-2.0837-24.966-20.54-24.966-55.814 0-35.87 7.3347-54.474 24.966-57.005z"/>
  <path d="m142.81 278.2v7.5907c17.349 2.0837 24.966 20.688 24.966 56.26 0 35.721-7.4758 54.177-24.966 56.558v7.5907c25.53-1.1907 41.187-23.814 41.187-64 0-40.037-15.516-62.66-41.187-64z"/>
  <path d="m129.06 374.48-1.4695-3.1022c-5.8778 4.8982-9.9596 7.3473-12.572 7.3473-2.4491 0-4.5716-1.6327-6.2044-4.8982-1.4694-3.1022-3.2654-9.1432-4.0818-13.878l-2.9389-16.491 5.7145-8.0003c7.6738-10.613 12.082-14.368 17.144-14.368 2.6124 0 4.5716 1.3062 5.388 3.7553l2.2858-0.65309 2.4491-13.878c-1.9593-1.1429-3.4287-1.6327-4.8982-1.6327-6.5309 0-13.062 5.8778-23.185 20.899l-6.0411 8.98-0.97964-7.8371c-1.955-16.17-6.363-22.05-15.996-22.05-4.2451 0-7.8371 1.3062-9.3065 3.4287l-9.4698 13.552 2.7756 1.6327c4.8982-5.5513 8.1636-7.8371 11.266-7.8371 5.388 0 8.98 6.6942 11.756 22.695l1.796 10.123-6.5309 10.123c-7.0207 10.939-12.572 16.164-17.144 16.164-2.4491 0-4.2451-0.65309-4.5716-1.4694l-1.796-4.5716-3.2654 0.48982c0 3.2654-0.32654 5.388-1.3062 10.613-0.32654 1.9593-0.48982 2.4491-0.65309 3.592 2.4491 1.3062 5.0614 1.9593 7.0207 1.9593 5.388 0 11.756-4.7349 16.817-12.409l12.409-19.103 1.796 11.266c2.2858 13.878 5.8778 20.246 11.756 20.246 3.592 0 8.8167-2.7756 14.041-7.5105z"/>
 </g>
</svg>
